<svg xmlns="http://www.w3.org/2000/svg" viewBox="0 0 640 360" width="640" height="360" role="img" aria-labelledby="t"><title id="t">示意插畫：社區住家旁的水桶、花盆與廢輪胎被清理，一隻斑蚊被排除</title><path d="M539.9 200 Q539.9 200 495.7 253.9 Q451.4 307.8 385.7 355.9 Q320 404.1 249.6 359.7 Q179.3 315.4 148.4 257.7 Q117.5 200 131.2 128.2 Q144.8 56.4 232.4 52.8 Q320 49.2 399.1 59.7 Q478.2 70.3 509.1 135.2 Z" fill="#fbf0d6"/><ellipse cx="520" cy="80" rx="40" ry="40" fill="#f2c46d" transform="rotate(0 520 80)"/><g transform="translate(170 210) scale(1.3)"><path d="M-50 -10 L0 -52 L50 -10 Z" fill="#d98a5f"/><rect x="-40" y="-12" width="80" height="62" fill="#fbf0d6"/><rect x="-10" y="16" width="20" height="34" fill="#1b5e3f"/><rect x="-32" y="2" width="16" height="16" fill="#eaf2fb"/><rect x="16" y="2" width="16" height="16" fill="#eaf2fb"/></g><g transform="translate(330 260) scale(1)"><path d="M-26 -24 H26 L20 26 H-20 Z" fill="#1e4f8a"/><ellipse cx="0" cy="-24" rx="26" ry="6" fill="#8fb3dc"/><path d="M-24 -24 a24 26 0 0 1 48 0" fill="none" stroke="#5b636c" stroke-width="2.5"/></g><g transform="translate(410 262) scale(1)"><path d="M-20 -10 H20 L14 20 H-14Z" fill="#d98a5f"/><ellipse cx="0" cy="24" rx="24" ry="5" fill="#8fb3dc"/><path d="M0 -10 q-14 -24 -4 -40 M0 -10 q10 -20 18 -30" stroke="#227a4c" stroke-width="5" fill="none" stroke-linecap="round"/></g><g><circle cx="490" cy="262" r="26" fill="#5b636c"/><circle cx="490" cy="262" r="13" fill="#8fb3dc"/></g><g transform="translate(420 120) rotate(-10) scale(1.1)"><ellipse cx="0" cy="0" rx="26" ry="7" fill="#5b636c"/><circle cx="-30" cy="-2" r="7" fill="#5b636c"/><path d="M-36 -2 l-22 6" stroke="#5b636c" stroke-width="2.5"/><ellipse cx="-4" cy="-18" rx="18" ry="8" fill="#eaf2fb" stroke="#5b636c" stroke-width="2" transform="rotate(-20 -4 -18)"/><ellipse cx="8" cy="-16" rx="16" ry="7" fill="#eaf2fb" stroke="#5b636c" stroke-width="2" transform="rotate(15 8 -16)"/><path d="M-10 5 l-12 22 M0 6 l-4 26 M10 5 l8 24" stroke="#5b636c" stroke-width="2" fill="none"/><path d="M6 -3 h6 M14 -3 h6" stroke="#ffffff" stroke-width="2"/></g><circle cx="420" cy="118" r="48" fill="none" stroke="#c4554d" stroke-width="6"/><line x1="386" y1="152" x2="454" y2="84" stroke="#c4554d" stroke-width="6"/><rect x="80" y="290" width="480" height="8" rx="4" fill="#b9d6c4"/></svg>
