<svg xmlns="http://www.w3.org/2000/svg" viewBox="0 0 640 360" width="640" height="360" role="img" aria-labelledby="t"><title id="t">示意插畫：社區志工翻倒水桶、刷洗花盆，旁有住家與被打叉的斑蚊</title><path d="M516.3 190 Q516.3 190 510 265.3 Q503.7 340.6 411.8 348.4 Q320 356.3 243.9 335.5 Q167.8 314.8 116.1 252.4 Q64.4 190 125.3 135.1 Q186.1 80.2 253.1 37.8 Q320 -4.5 404.7 23.2 Q489.5 51 502.9 120.5 Z" fill="#f1f6f3"/><g transform="translate(120 210) scale(1.1)"><path d="M-50 -10 L0 -52 L50 -10 Z" fill="#1b5e3f"/><rect x="-40" y="-12" width="80" height="62" fill="#f4dcc0"/><rect x="-10" y="16" width="20" height="34" fill="#1b5e3f"/><rect x="-32" y="2" width="16" height="16" fill="#eaf2fb"/><rect x="16" y="2" width="16" height="16" fill="#eaf2fb"/></g><g transform="translate(240 200) scale(1.3)"><rect x="-22" y="0" width="44" height="58" rx="20" fill="#f2c46d"/><circle cx="0" cy="-18" r="16" fill="#f0c9a4"/><path d="M-16 -20 a16 16 0 0 1 32 0 q-8 -8 -16 -6 q-8 2 -16 6z" fill="#0f3d2e"/></g><g transform="translate(300 250) scale(0.9)"><path d="M-26 -24 H26 L20 26 H-20 Z" fill="#1e4f8a"/><ellipse cx="0" cy="-24" rx="26" ry="6" fill="#8fb3dc"/><path d="M-24 -24 a24 26 0 0 1 48 0" fill="none" stroke="#5b636c" stroke-width="2.5"/></g><path d="M318 240 q20 10 30 30" stroke="#8fb3dc" stroke-width="6" fill="none" stroke-linecap="round"/><g transform="translate(400 200) scale(1.2)"><rect x="-22" y="0" width="44" height="58" rx="20" fill="#227a4c"/><circle cx="0" cy="-18" r="16" fill="#c98f68"/><path d="M-16 -20 a16 16 0 0 1 32 0 q-8 -8 -16 -6 q-8 2 -16 6z" fill="#0f3d2e"/></g><g transform="translate(460 256) scale(0.9)"><path d="M-20 -10 H20 L14 20 H-14Z" fill="#d98a5f"/><ellipse cx="0" cy="24" rx="24" ry="5" fill="#8fb3dc"/><path d="M0 -10 q-14 -24 -4 -40 M0 -10 q10 -20 18 -30" stroke="#227a4c" stroke-width="5" fill="none" stroke-linecap="round"/></g><g><circle cx="520" cy="262" r="22" fill="#5b636c"/><circle cx="520" cy="262" r="11" fill="#8fb3dc"/></g><g transform="translate(480 110) rotate(10) scale(0.8)"><ellipse cx="0" cy="0" rx="26" ry="7" fill="#5b636c"/><circle cx="-30" cy="-2" r="7" fill="#5b636c"/><path d="M-36 -2 l-22 6" stroke="#5b636c" stroke-width="2.5"/><ellipse cx="-4" cy="-18" rx="18" ry="8" fill="#eaf2fb" stroke="#5b636c" stroke-width="2" transform="rotate(-20 -4 -18)"/><ellipse cx="8" cy="-16" rx="16" ry="7" fill="#eaf2fb" stroke="#5b636c" stroke-width="2" transform="rotate(15 8 -16)"/><path d="M-10 5 l-12 22 M0 6 l-4 26 M10 5 l8 24" stroke="#5b636c" stroke-width="2" fill="none"/><path d="M6 -3 h6 M14 -3 h6" stroke="#ffffff" stroke-width="2"/></g><path d="M450 80 l60 60 M510 80 l-60 60" stroke="#c4554d" stroke-width="6" stroke-linecap="round"/><rect x="60" y="290" width="520" height="8" rx="4" fill="#b9d6c4"/><g opacity=".92"><circle cx="560" cy="300" r="26" fill="#0f3d2e" opacity=".78"/><path d="M552.2 289.08 L571.96 300 L552.2 310.92Z" fill="#ffffff"/></g></svg>
